<svg width="43" height="32" viewBox="0 0 43 32" fill="none" xmlns="http://www.w3.org/2000/svg">
<path d="M15.5909 31.1818C14.9738 31.1818 14.4216 31.0032 13.9344 30.6459C13.4472 30.2886 13.0899 29.8339 12.8625 29.2817L8.38011 17.5398H0V13.642H11.1085L15.5909 25.5301L24.5557 1.90014C24.7831 1.34796 25.1403 0.893229 25.6276 0.535938C26.1148 0.178646 26.667 0 27.2841 0C27.9012 0 28.4534 0.178646 28.9406 0.535938C29.4278 0.893229 29.7851 1.34796 30.0125 1.90014L34.4949 13.642H42.875V17.5398H31.7665L27.2841 5.65171L18.3193 29.2817C18.092 29.8339 17.7347 30.2886 17.2474 30.6459C16.7602 31.0032 16.2081 31.1818 15.5909 31.1818Z" fill="#D2242A"/>
</svg>
